<svg xmlns="http://www.w3.org/2000/svg" viewBox="0 0 64 64" fill="none">
  <style>
    .o { stroke: #26292B; }
    .h { stroke: none; }
    @media (prefers-color-scheme: dark) { .h { stroke: #F1E8D8; } }
  </style>
  <defs>
    <clipPath id="b"><path d="M18 10.3H46C46.6 14.5 49.2 22 49.2 31C49.2 40.5 46.6 47.4 38.5 47.4H25.5C17.4 47.4 14.8 40.5 14.8 31C14.8 22 17.4 14.5 18 10.3Z"/></clipPath>
    <clipPath id="l"><path d="M14 22.5H50V31C50 38.5 45.5 43.4 38 43.4H26C18.5 43.4 14 38.5 14 31Z"/></clipPath>
  </defs>
  <rect class="h" x="21.5" y="46.5" width="21" height="8.8" rx="3.4" stroke-width="5.4"/>
  <path class="h" d="M18 10.3H46C46.6 14.5 49.2 22 49.2 31C49.2 40.5 46.6 47.4 38.5 47.4H25.5C17.4 47.4 14.8 40.5 14.8 31C14.8 22 17.4 14.5 18 10.3Z" stroke-width="5.6" stroke-linejoin="round"/>
  <rect class="o" x="21.5" y="46.5" width="21" height="8.8" rx="3.4" fill="#F4EEE2" stroke-width="2.4"/>
  <rect x="32" y="47.7" width="9.3" height="6.4" rx="1.6" fill="#E2D3B8"/>
  <g clip-path="url(#b)">
    <rect x="10" y="8" width="22" height="44" fill="#F4EEE2"/>
    <rect x="32" y="8" width="22" height="44" fill="#E2D3B8"/>
    <g clip-path="url(#l)">
      <rect x="10" y="22" width="22" height="40" fill="#EDB257"/>
      <rect x="32" y="22" width="22" height="40" fill="#C8843A"/>
      <line class="o" x1="10" y1="23.4" x2="54" y2="23.4" stroke-width="2.3"/>
    </g>
    <path d="M22.8 14C21.8 20.5 21.8 30 23.2 37.4" stroke="#FFFDF8" stroke-width="2.2" stroke-linecap="round" opacity="0.92"/>
  </g>
  <path class="o" d="M18 10.3H46C46.6 14.5 49.2 22 49.2 31C49.2 40.5 46.6 47.4 38.5 47.4H25.5C17.4 47.4 14.8 40.5 14.8 31C14.8 22 17.4 14.5 18 10.3Z" stroke-width="2.6" stroke-linejoin="round"/>
</svg>
